<svg viewBox="0 0 100 100" xmlns="http://www.w3.org/2000/svg">
  <!-- Fundo circular azul -->
  <circle cx="50" cy="50" r="50" fill="#4f46e5"/>
  
  <!-- Ícone de localização -->
  <path fill="#ffffff" d="M50 0C27.9 0 10 17.9 10 40c0 22.1 40 60 40 60s40-37.9 40-60C90 17.9 72.1 0 50 0zm0 60c-11 0-20-9-20-20s9-20 20-20 20 9 20 20-9 20-20 20z"/>
  
  <!-- Chave no centro -->
  <path fill="#4f46e5" d="M50 25c-8.3 0-15 6.7-15 15v10c0 1.9 1.4 3.5 3.2 3.8.3.1.7.1 1 .1h21.6c.3 0 .6 0 .9-.1 1.8-.3 3.2-1.9 3.2-3.8V40c0-8.3-6.7-15-15-15z"/>
</svg>
